<svg version="1.0" xmlns="http://www.w3.org/2000/svg"
 width="668px" style="transform:scale(1,1.001);" height="375.75px" viewBox="0 0 320.000000 180.000000"
 preserveAspectRatio="xMidYMid meet">
<g transform="translate(0.000000,180.000000) scale(0.100000,-0.100000)"
fill="#000000" stroke="none">
<path d="M0 905 l0 -895 1600 0 1600 0 0 895 0 895 -1600 0 -1600 0 0 -895z m1519 635
c11 -14 23 -34 27 -45 4 -11 15 -31 25 -45 21 -30 35 -103 51 -265 16 -165 16
-287 0 -293 -14 -4 -16 -32 -2 -32 13 0 13 -97 0 -105 -18 -11 0 -25 24 -19
15 3 39 -5 72 -25 27 -16 73 -41 103 -55 63 -31 92 -60 126 -125 24 -48 56
-158 70 -238 l7 -43 -786 0 -786 0 0 81 c0 76 2 84 36 135 33 49 129 144 146
144 3 0 39 23 80 50 40 28 97 58 127 67 102 29 171 68 171 96 0 9 -9 36 -19
60 -34 75 -63 252 -56 331 16 172 92 306 174 306 12 0 25 8 28 18 4 9 10 19
14 22 4 3 84 5 177 5 169 0 170 0 191 -25z"/>
</g>
</svg>
